<svg xmlns="http://www.w3.org/2000/svg" xmlns:xlink="http://www.w3.org/1999/xlink"><symbol id="calendar" viewBox="0 0 21 23"><path fill-rule="evenodd" clip-rule="evenodd" d="M16.4 3.02h2.85c.97 0 1.75.83 1.75 1.84v16.3A1.8 1.8 0 0119.25 23H1.75A1.8 1.8 0 010 21.16V4.86a1.8 1.8 0 011.75-1.84h2.84V1.65c0-.38.3-.7.66-.7.36 0 .66.32.66.7v1.37h3.93V1.65c0-.38.3-.7.66-.7.36 0 .66.32.66.7v1.37h3.93V1.65c0-.38.3-.7.66-.7.36 0 .66.32.66.7v1.37zm3.16 18.46c.09-.08.13-.2.13-.32V4.86c0-.25-.2-.46-.44-.46h-2.84v1.38c0 .38-.3.69-.66.69a.67.67 0 01-.65-.69V4.4h-3.94v1.38c0 .38-.3.69-.66.69a.67.67 0 01-.65-.69V4.4H5.9v1.38c0 .38-.3.69-.66.69a.67.67 0 01-.66-.69V4.4H1.75a.45.45 0 00-.44.46v16.3c0 .25.2.46.44.46h17.5c.12 0 .23-.05.31-.14z"/><path fill-rule="evenodd" clip-rule="evenodd" d="M4.6 9.23h2.62v2.06H4.59V9.23zm0 3.44h2.62v2.07H4.59v-2.07zm2.62 3.44H4.59v2.07h2.63V16.1zm1.97 0h2.62v2.07H9.2V16.1zm2.62-3.44H9.2v2.07h2.62v-2.07zM9.2 9.23h2.62v2.06H9.2V9.23zm7.22 6.88h-2.63v2.07h2.63V16.1zm-2.63-3.44h2.63v2.07h-2.63v-2.07zm2.63-3.44h-2.63v2.06h2.63V9.23z"/></symbol><symbol id="decrease" viewBox="0 0 12 3"><path d="M0 0h12v3H0z"/></symbol><symbol id="facebook" viewBox="0 0 12 22"><path d="M12 4V0H8a4 4 0 00-4 4v4H0v4h4v10h4V12h4V8H8V4h4z"/></symbol><symbol id="higher-first" viewBox="0 0 11 10"><path d="M5.5 10L0 0h11"/></symbol><symbol id="increase" viewBox="0 0 11 11"><path fill-rule="evenodd" clip-rule="evenodd" d="M4.23 6.77V11h2.54V6.77H11V4.23H6.77V0H4.23v4.23H0v2.54h4.23z"/></symbol><symbol id="logo-htmlacademy" viewBox="0 0 115 41"><path fill-rule="evenodd" clip-rule="evenodd" d="M15.52 1.06h-.17L0 2.72v28.77l15.35 9.35 15.35-9.35V2.72L15.52 1.06zm61.5 1.56h-1.93v13.11h1.93V2.63zm-36.16.01v5.14a3.98 3.98 0 012.85-1.23 3.4 3.4 0 012.62 1c.69.7 1.06 1.67 1.01 2.67v5.55h-1.97v-5.3c.05-.51-.1-1.03-.41-1.43a1.9 1.9 0 00-1.3-.72h-.3a3.1 3.1 0 00-2.46 1.5v5.95h-2V2.63h1.96zm36.16 28.85h-1.74v-1.42a4.06 4.06 0 01-3.37 1.66 4.7 4.7 0 01-4.33-4.74 4.7 4.7 0 014.33-4.73 4 4 0 013.17 1.4v-5.33h1.94v13.16zm-29.95-1.42c.2 0 .39-.04.58-.1v1.43c-.4.15-.82.23-1.25.22a1.76 1.76 0 01-1.76-1.08 5.04 5.04 0 01-3.31 1.17c-1.6 0-3.07-.9-3.07-2.75 0-2.3 2.1-3.01 3.91-3.01.77.01 1.54.1 2.29.27v-.33c0-1.07-.8-1.9-2.31-1.9-1.1 0-2.17.23-3.17.68v-1.83c1.09-.38 2.22-.58 3.37-.6 2.49 0 4.02 1.22 4.02 3.95v3.23a.6.6 0 00.13.43c.1.12.23.2.39.2h.18v.02zm-6.8-1.22c.03.39.2.75.5 1 .28.26.66.38 1.04.35h.12c.95 0 1.87-.39 2.54-1.08v-1.53c-.63-.14-1.27-.21-1.91-.23-1.05 0-2.28.36-2.28 1.49zm15.75-5.9a5.18 5.18 0 00-2.7-.7h-.38a4.6 4.6 0 00-4.41 4.82v.44a4.48 4.48 0 004.72 4.23c1 .03 2-.18 2.91-.61v-1.85c-.78.45-1.67.69-2.56.7a2.88 2.88 0 01-2.66-1.43 3.02 3.02 0 010-3.07 2.88 2.88 0 012.66-1.43c.86 0 1.7.26 2.42.75v-1.85zm10.13 7.12c.2 0 .4-.04.58-.1v1.43c-.4.15-.82.23-1.24.22a1.76 1.76 0 01-1.77-1.08 5.04 5.04 0 01-3.3 1.17c-1.6 0-3.08-.9-3.08-2.75 0-2.3 2.11-3.01 3.92-3.01.77.01 1.53.1 2.29.27v-.33c0-1.07-.8-1.9-2.32-1.9-1.09 0-2.16.23-3.16.68v-1.83c1.08-.38 2.22-.58 3.37-.6 2.49 0 4.02 1.22 4.02 3.95v3.23a.6.6 0 00.12.43c.1.12.24.2.4.2h.17v.02zm-6.3-.21a1.51 1.51 0 01-.5-1.01h.03c0-1.13 1.16-1.49 2.28-1.49.64.02 1.28.1 1.9.23v1.53a3.54 3.54 0 01-2.54 1.08h-.11a1.4 1.4 0 01-1.05-.34zm9.48-2.92c0-1.64 1.3-2.98 2.9-2.98l.03.06c1.21 0 2.31.73 2.8 1.86v2.16a3.02 3.02 0 01-2.82 1.88 2.95 2.95 0 01-2.91-2.98zm14.02-4.68c3.5 0 4.7 2.89 4.13 5.49h-6.56c.22 1.62 1.76 2.28 3.37 2.28a6.4 6.4 0 002.78-.64v1.73c-1 .43-2.08.64-3.16.61-2.67 0-5.01-1.53-5.01-4.77a4.57 4.57 0 011.14-3.27c.8-.89 1.9-1.41 3.08-1.46h.23v.03zm-2.48 3.93a2.42 2.42 0 012.57-2.27h.05c.62-.06 1.23.17 1.67.62.44.45.67 1.08.62 1.71h-4.91v-.06zm8.62 5.28V22.5h1.74v1.07a3.98 3.98 0 012.93-1.37 3 3 0 012.79 1.52 4.3 4.3 0 013.07-1.44 3.2 3.2 0 012.49 1.01c.64.69.97 1.63.88 2.58v5.61h-2v-5.55c.05-.46-.08-.91-.37-1.27a1.67 1.67 0 00-1.13-.62h-.27c-.87.05-1.67.5-2.19 1.2v6.24h-2v-5.55a1.8 1.8 0 00-.38-1.27c-.29-.35-.7-.57-1.15-.61h-.21c-.94.08-1.8.6-2.33 1.4v6.07h-1.83l-.04-.06zm24.49-8.99h-2l-2.66 6.8-3.01-6.78h-2.11l4.22 9.06-.18.45c-.52 1.36-1.24 2.05-2.19 2.05-.3 0-.6-.04-.9-.13v1.7c.39.1.78.14 1.17.15 1.33 0 2.58-.75 3.53-3.09l4.13-10.2zM52.68 6.8V3.55l-1.95.46v2.72h-1.59V8.5h1.65V13a2.74 2.74 0 003.02 2.96c.79 0 1.58-.12 2.33-.38v-1.73c-.57.24-1.17.36-1.78.36-1.14 0-1.67-.39-1.67-1.58v-4.1h3.16V6.78H52.7zm5.7 8.96v-9h1.76v1.08a3.98 3.98 0 012.92-1.38A3 3 0 0165.8 7.9a4.3 4.3 0 013.07-1.44 3.2 3.2 0 012.5 1.05c.63.7.94 1.66.84 2.62v5.62h-2V10.2c.04-.46-.1-.91-.37-1.27a1.67 1.67 0 00-1.14-.62h-.24c-.86.05-1.66.5-2.18 1.2v6.24h-2V10.2c.04-.46-.1-.91-.37-1.27a1.67 1.67 0 00-1.13-.62h-.25c-.94.08-1.8.6-2.33 1.39v6.07h-1.8zM28.7 30.3v.02-.02zm0-11.98V30.3l-13.35 8.13L2 30.32v-11.8l13.3 8.08v1.42l-9.1-5.5v1.41l9.15 5.62v1.5L6.19 25.5v1.45l9.16 5.62 9.23-5.65v-6.1l4.12-2.5zm0-1.54l-3.66 2.16-1.7 1.07-8.03-4.93v1.42l6.85 4.23-.15.1-1.06.58-5.66-3.46v1.45l4.47 2.72-1.05.72-3.38-2.05v1.41l2.22 1.34-2.25 1.36-13.2-8.04 13.2-8.13 13.4 8.05zm-13.4-9.5l13.42 8.07V4.56L15.36 3.13 2.02 4.56v10.8l13.27-8.09z"/></symbol><symbol id="lower-first" viewBox="0 0 11 10"><path d="M5.5 0L0 10h11L5.5 0z"/></symbol><symbol id="twitter" viewBox="0 0 17 17"><path d="M10.95 1.14a3.1 3.1 0 013.58 1.18c.67-.23 1.33-.48 2-.7a2.34 2.34 0 01-.85 1.76c.69.17 1.3-.49 1.3-.49-.16 1-1 1.79-1.56 2.03C15.2 11.67 12.25 16.13 5.34 16H4.9c-.41 0-4.17-.46-4.9-1.89 2.27.2 3.9-.42 4.7-1.18-.97-.3-2.69-.47-2.99-2.95.35.11.57.23 1.2.12C1.7 9.25.36 8.53.44 6.33a1.9 1.9 0 001.34.47c-.7-.24-1.97-3.36-.9-4.95C2.7 3.7 4.62 5.45 8.04 5.62c.2-2.29 1.13-3.83 2.9-4.48z"/></symbol><symbol id="youtube" viewBox="0 0 20 16"><path fill-rule="evenodd" clip-rule="evenodd" d="M3 0h14a3 3 0 013 3v10a3 3 0 01-3 3H3a3 3 0 01-3-3V3a3 3 0 013-3zm3.03 4v8L15 8 6.03 4z"/></symbol></svg>