<svg xmlns="http://www.w3.org/2000/svg" xmlns:xlink="http://www.w3.org/1999/xlink"><symbol id="icon-1" viewBox="0 0 75 72"><path fill-rule="evenodd" clip-rule="evenodd" d="M45.66 65.03h-16V41.21h16v23.82zm-2.94-20.9H32.59v17.98h10.13V44.13z"/><path fill-rule="evenodd" clip-rule="evenodd" d="M72.77 39.25l2.08-2.06-9.91-9.87V0H51.13v13.57L37.5 0 .15 37.19l2.08 2.06 7.83-7.8v37.63H6.12V72H70v-2.92h-5.06V31.46l7.83 7.8zM62 69.08H13V28.53L37.5 4.15 62 28.53v40.55zm-7.94-52.59L62 24.4V2.92h-7.94V16.5z"/><path fill-rule="evenodd" clip-rule="evenodd" d="M37.66 34.8a7.73 7.73 0 01-7.75-7.72 7.73 7.73 0 017.75-7.71 7.73 7.73 0 017.75 7.71 7.73 7.73 0 01-7.75 7.71zm4.97-7.72a4.96 4.96 0 00-4.97-4.95 4.96 4.96 0 104.97 4.95zM17.05 41.21h3v3.92h-3V41.2zm8.94 0h-3v3.92h3V41.2zm-8.94 5.97h3v3.92h-3v-3.92zm8.94 0h-3v3.92h3v-3.92zm23-5.97h3v3.92h-3V41.2zm8.94 0h-3v3.92h3V41.2zM49 47.18h3v3.92h-3v-3.92zm8.94 0h-3v3.92h3v-3.92z"/></symbol><symbol id="icon-2" viewBox="0 0 64 77"><path fill-rule="evenodd" clip-rule="evenodd" d="M61.1 23.5H36.3c13.81-6.9 14.92-11.25 14.41-13.68-1.16-3.97-5.7-7.03-10-5.41-5.57 2.09-7.14 10.39-8.65 16.39-1.92-6.07-3.78-13.82-8.13-17.74a7.31 7.31 0 00-5.77-2.03c-4.02.36-9.8 5.38-7.45 10.98 2.25 5.38 9.68 8.78 14.58 11.5H2.88A2.88 2.88 0 000 26.36v11.32c0 1.59 1.3 2.87 2.88 2.87h.27V77H61V40.56h.1a2.88 2.88 0 002.89-2.87V26.37a2.89 2.89 0 00-2.88-2.87zM42.4 6.94c2.1-.3 4.99 1.3 5.26 3.21.4 2.76-3.4 5.26-5.09 6.42-2.52 1.75-4.93 2.65-7.28 4.06.88-3.7 2.54-13.01 7.11-13.69zm-22.88 9.97c-2.22-1.48-6.54-4.43-6.44-7.77.11-3.6 5.74-6.57 8.82-3.89 3.85 3.38 5.7 11.11 7.11 16.56-3.25-1.54-6.32-2.79-9.49-4.9zm5.97 57.12H6.14V40.56H25.5v33.47zm0-36.5H3.05v-11H25.5v11zm10.16 0v36.5h-7.17v-47.5h7.17v11zM58 74.03H38.64V40.56h19.37v33.47zm2.92-36.5H38.64v-11h22.3v11z"/></symbol><symbol id="icon-3" viewBox="0 0 75 70"><path clip-rule="evenodd" d="M8.98 31.54h60.88c.04-.61.06-1.24.06-1.87l-.03-1.17C69.23 12.66 55.2 0 37.95 0 20.72 0 6.68 12.66 6.01 28.5a26.88 26.88 0 00.04 3.04h2.93zm12.98 10.93l-5.33-4.06-5.32 4.06-6.19-4.72 1.72-2.46 4.47 3.4 5.33-4.05 5.32 4.05 5.32-4.05 5.33 4.05 5.33-4.05 5.33 4.05 5.33-4.05 5.32 4.05 5.33-4.05 5.34 4.06 4.47-3.4 1.72 2.45-6.2 4.71-5.33-4.05-5.33 4.06-5.32-4.06-5.33 4.06-5.33-4.06-5.33 4.06-5.33-4.06-5.32 4.06zM5.06 46.7h65.8a4.24 4.24 0 014.13 4.31v3.5a4.24 4.24 0 01-4.14 4.32h-.93v1.05c0 5.54-4.34 10.07-9.65 10.07H15.63c-5.3 0-9.65-4.53-9.65-10.07v-1.05h-.93a4.24 4.24 0 01-4.13-4.31v-3.5a4.24 4.24 0 014.13-4.32zm55.22 20.2c3.7 0 6.73-3.14 6.73-7.02v-1.05H8.9v1.05c0 3.88 3.02 7.03 6.73 7.03h44.65zm11.8-12.38c0 .69-.57 1.27-1.23 1.27H5.05c-.66 0-1.22-.58-1.22-1.27v-3.5c0-.7.56-1.28 1.22-1.28h65.8c.66 0 1.22.58 1.22 1.27v3.5zm-5.1-26.03C66.3 14.36 53.53 3.04 37.94 3.04 22.36 3.04 9.6 14.36 8.93 28.5h58.04z"/><path d="M37.95 17.29c1.08 0 1.95-.9 1.95-2.03 0-1.12-.87-2.03-1.95-2.03-1.07 0-1.94.9-1.94 2.03 0 1.12.87 2.03 1.94 2.03zm-7.78-5.03c1.08 0 1.95-.9 1.95-2.03 0-1.12-.87-2.03-1.95-2.03-1.07 0-1.94.9-1.94 2.03 0 1.12.87 2.03 1.94 2.03zm15.56 0c1.08 0 1.95-.9 1.95-2.03 0-1.12-.87-2.03-1.95-2.03-1.07 0-1.94.9-1.94 2.03 0 1.12.87 2.03 1.94 2.03z"/></symbol><symbol id="icon-down-dir" viewBox="0 0 11 10"><path d="M5.5 10L0 0h11"/></symbol><symbol id="logo-htmlacademy" viewBox="0 0 115 41"><path fill-rule="evenodd" clip-rule="evenodd" d="M15.52 1.06h-.17L0 2.72v28.77l15.35 9.35 15.35-9.35V2.72L15.52 1.06zm61.5 1.56h-1.93v13.11h1.93V2.63zm-36.16.01v5.14a3.98 3.98 0 012.85-1.23 3.4 3.4 0 012.62 1c.69.7 1.06 1.67 1.01 2.67v5.55h-1.97v-5.3c.05-.51-.1-1.03-.41-1.43a1.9 1.9 0 00-1.3-.72h-.3a3.1 3.1 0 00-2.46 1.5v5.95h-2V2.63h1.96zm36.16 28.85h-1.74v-1.42a4.06 4.06 0 01-3.37 1.66 4.7 4.7 0 01-4.33-4.74 4.7 4.7 0 014.33-4.73 4 4 0 013.17 1.4v-5.33h1.94v13.16zm-29.95-1.42c.2 0 .39-.04.58-.1v1.43c-.4.15-.82.23-1.25.22a1.76 1.76 0 01-1.76-1.08 5.04 5.04 0 01-3.31 1.17c-1.6 0-3.07-.9-3.07-2.75 0-2.3 2.1-3.01 3.91-3.01.77.01 1.54.1 2.29.27v-.33c0-1.07-.8-1.9-2.31-1.9-1.1 0-2.17.23-3.17.68v-1.83c1.09-.38 2.22-.58 3.37-.6 2.49 0 4.02 1.22 4.02 3.95v3.23a.6.6 0 00.13.43c.1.12.23.2.39.2h.18v.02zm-6.8-1.22c.03.39.2.75.5 1 .28.26.66.38 1.04.35h.12c.95 0 1.87-.39 2.54-1.08v-1.53c-.63-.14-1.27-.21-1.91-.23-1.05 0-2.28.36-2.28 1.49zm15.75-5.9a5.18 5.18 0 00-2.7-.7h-.38a4.6 4.6 0 00-4.41 4.82v.44a4.48 4.48 0 004.72 4.23c1 .03 2-.18 2.91-.61v-1.85c-.78.45-1.67.69-2.56.7a2.88 2.88 0 01-2.66-1.43 3.02 3.02 0 010-3.07 2.88 2.88 0 012.66-1.43c.86 0 1.7.26 2.42.75v-1.85zm10.13 7.12c.2 0 .4-.04.58-.1v1.43c-.4.15-.82.23-1.24.22a1.76 1.76 0 01-1.77-1.08 5.04 5.04 0 01-3.3 1.17c-1.6 0-3.08-.9-3.08-2.75 0-2.3 2.11-3.01 3.92-3.01.77.01 1.53.1 2.29.27v-.33c0-1.07-.8-1.9-2.32-1.9-1.09 0-2.16.23-3.16.68v-1.83c1.08-.38 2.22-.58 3.37-.6 2.49 0 4.02 1.22 4.02 3.95v3.23a.6.6 0 00.12.43c.1.12.24.2.4.2h.17v.02zm-6.3-.21a1.51 1.51 0 01-.5-1.01h.03c0-1.13 1.16-1.49 2.28-1.49.64.02 1.28.1 1.9.23v1.53a3.54 3.54 0 01-2.54 1.08h-.11a1.4 1.4 0 01-1.05-.34zm9.48-2.92c0-1.64 1.3-2.98 2.9-2.98l.03.06c1.21 0 2.31.73 2.8 1.86v2.16a3.02 3.02 0 01-2.82 1.88 2.95 2.95 0 01-2.91-2.98zm14.02-4.68c3.5 0 4.7 2.89 4.13 5.49h-6.56c.22 1.62 1.76 2.28 3.37 2.28a6.4 6.4 0 002.78-.64v1.73c-1 .43-2.08.64-3.16.61-2.67 0-5.01-1.53-5.01-4.77a4.57 4.57 0 011.14-3.27c.8-.89 1.9-1.41 3.08-1.46h.23v.03zm-2.48 3.93a2.42 2.42 0 012.57-2.27h.05c.62-.06 1.23.17 1.67.62.44.45.67 1.08.62 1.71h-4.91v-.06zm8.62 5.28V22.5h1.74v1.07a3.98 3.98 0 012.93-1.37 3 3 0 012.79 1.52 4.3 4.3 0 013.07-1.44 3.2 3.2 0 012.49 1.01c.64.69.97 1.63.88 2.58v5.61h-2v-5.55c.05-.46-.08-.91-.37-1.27a1.67 1.67 0 00-1.13-.62h-.27c-.87.05-1.67.5-2.19 1.2v6.24h-2v-5.55a1.8 1.8 0 00-.38-1.27c-.29-.35-.7-.57-1.15-.61h-.21c-.94.08-1.8.6-2.33 1.4v6.07h-1.83l-.04-.06zm24.49-8.99h-2l-2.66 6.8-3.01-6.78h-2.11l4.22 9.06-.18.45c-.52 1.36-1.24 2.05-2.19 2.05-.3 0-.6-.04-.9-.13v1.7c.39.1.78.14 1.17.15 1.33 0 2.58-.75 3.53-3.09l4.13-10.2zM52.68 6.8V3.55l-1.95.46v2.72h-1.59V8.5h1.65V13a2.74 2.74 0 003.02 2.96c.79 0 1.58-.12 2.33-.38v-1.73c-.57.24-1.17.36-1.78.36-1.14 0-1.67-.39-1.67-1.58v-4.1h3.16V6.78H52.7zm5.7 8.96v-9h1.76v1.08a3.98 3.98 0 012.92-1.38A3 3 0 0165.8 7.9a4.3 4.3 0 013.07-1.44 3.2 3.2 0 012.5 1.05c.63.7.94 1.66.84 2.62v5.62h-2V10.2c.04-.46-.1-.91-.37-1.27a1.67 1.67 0 00-1.14-.62h-.24c-.86.05-1.66.5-2.18 1.2v6.24h-2V10.2c.04-.46-.1-.91-.37-1.27a1.67 1.67 0 00-1.13-.62h-.25c-.94.08-1.8.6-2.33 1.39v6.07h-1.8zM28.7 30.3v.02-.02zm0-11.98V30.3l-13.35 8.13L2 30.32v-11.8l13.3 8.08v1.42l-9.1-5.5v1.41l9.15 5.62v1.5L6.19 25.5v1.45l9.16 5.62 9.23-5.65v-6.1l4.12-2.5zm0-1.54l-3.66 2.16-1.7 1.07-8.03-4.93v1.42l6.85 4.23-.15.1-1.06.58-5.66-3.46v1.45l4.47 2.72-1.05.72-3.38-2.05v1.41l2.22 1.34-2.25 1.36-13.2-8.04 13.2-8.13 13.4 8.05zm-13.4-9.5l13.42 8.07V4.56L15.36 3.13 2.02 4.56v10.8l13.27-8.09z"/></symbol><symbol id="star" viewBox="0 0 19 17"><path d="M9 0l2.13 6.5H18l-5.56 4 2.13 6.5L9 12.99 3.44 17l2.12-6.5L0 6.5h6.88L9 0z"/></symbol></svg>